<svg width="512" height="512" viewBox="0 0 512 512" fill="none" xmlns="http://www.w3.org/2000/svg">
<g clip-path="url(#clip0)">
<path d="M469.488 61.589H461.416C455.135 30.725 427.839 7.5 395.123 7.5C362.407 7.5 335.11 30.725 328.83 61.589C327.943 65.973 327.473 70.505 327.473 75.15C327.473 92.06 333.675 107.518 343.931 119.374H469.488C477.465 119.374 484.693 116.138 489.921 110.91C495.149 105.682 498.385 98.462 498.385 90.477C498.385 74.523 485.441 61.589 469.488 61.589V61.589Z" fill="#3990FF"/>
<path d="M449.927 201.155C443.259 194.487 434.038 190.361 423.87 190.361H371.567C377.788 175.199 381.283 158.624 381.439 141.259C382.091 68.286 322.886 8.051 249.913 7.504C178.023 6.965 119.258 63.644 116.449 134.714C116.352 137.172 114.331 139.112 111.872 139.113C101.381 139.115 76.086 139.117 76.086 139.117C41.585 139.117 13.616 167.086 13.616 201.587C13.616 236.088 41.585 264.057 76.086 264.057H423.273C443.314 264.057 460.15 248.295 460.707 228.262C461.001 217.678 456.823 208.051 449.927 201.155Z" fill="#3990FF"/>
<path d="M449.927 201.155C443.259 194.487 434.038 190.361 423.87 190.361H390.595C400.764 190.361 409.984 194.487 416.652 201.155C423.548 208.051 427.726 217.678 427.431 228.261C426.874 248.294 410.038 264.056 389.997 264.056H423.272C443.313 264.056 460.149 248.294 460.706 228.261C461.001 217.678 456.823 208.051 449.927 201.155V201.155Z" fill="#3990FF"/>
<path d="M348.163 141.259C348.022 157.032 345.126 172.153 339.934 186.155C339.177 188.196 340.681 190.361 342.857 190.361H371.567C377.788 175.199 381.283 158.624 381.439 141.259C382.091 68.286 322.886 8.051 249.913 7.504C243.912 7.459 238.006 7.821 232.213 8.549C297.848 16.828 348.769 73.557 348.163 141.259V141.259Z" fill="#3990FF"/>
<path d="M239.35 202.391L81.578 475.661C74.178 488.478 83.428 504.5 98.228 504.5H413.773C428.573 504.5 437.823 488.478 430.423 475.661L272.649 202.389C265.249 189.572 246.75 189.574 239.35 202.391V202.391Z" fill="#FFCF23"/>
<path d="M430.422 475.661L272.649 202.389C265.249 189.572 246.744 189.571 239.35 202.392L239.253 202.56L390.332 464.236C392.373 467.772 389.822 472.192 385.739 472.192H98.228C93.482 472.192 89.311 470.539 86.073 467.877L81.578 475.662C74.178 488.479 83.428 504.501 98.228 504.501C157.406 504.501 420.452 504.501 413.773 504.501C428.572 504.5 437.823 488.478 430.422 475.661V475.661Z" fill="#FFCF23"/>
<path d="M256 463.538C266.56 463.538 275.121 454.977 275.121 444.417C275.121 433.857 266.56 425.296 256 425.296C245.44 425.296 236.879 433.857 236.879 444.417C236.879 454.977 245.44 463.538 256 463.538Z" fill="#FF4539"/>
<path d="M227.992 301.546L240.113 386.078C240.754 390.55 244.585 393.871 249.103 393.871H262.896C267.414 393.871 271.245 390.55 271.886 386.078L284.007 301.546C285.058 294.213 279.369 287.65 271.961 287.65H240.037C232.63 287.649 226.941 294.213 227.992 301.546V301.546Z" fill="#FF4539"/>
<path d="M469.49 54.09H467.286C458.046 22.407 428.628 0 395.12 0C371.512 0 349.256 11.267 335.152 29.883C310.87 10.74 281.212 0.239 249.969 0.004C249.613 0.001 249.265 0 248.91 0C208.235 0 169.685 17.595 143.013 48.372C140.301 51.503 140.639 56.239 143.769 58.952C146.9 61.665 151.636 61.326 154.349 58.196C178.167 30.71 212.587 15 248.91 15C249.225 15 249.541 15.001 249.857 15.004C283.171 15.254 314.448 28.604 337.916 52.459C361.324 76.253 374.101 107.568 373.937 140.681C373.818 164.851 366.822 188.976 352.483 210.123C350.159 213.552 351.054 218.216 354.482 220.54C357.897 222.854 362.564 221.984 364.899 218.541C369.337 211.993 373.215 205.053 376.482 197.861H423.87C440.283 197.861 453.675 211.353 453.21 228.052C452.773 243.769 439.344 256.555 423.273 256.555H385.473C381.33 256.555 377.973 259.912 377.973 264.055C377.973 268.198 381.33 271.555 385.473 271.555H423.273C447.387 271.555 467.544 252.227 468.204 228.469C468.904 203.364 448.78 182.861 423.87 182.861H382.284C382.339 182.691 382.384 182.518 382.438 182.348C387.878 165.178 390.141 146.247 388.324 126.87H469.491C489.609 126.87 505.881 110.598 505.881 90.48C505.88 70.415 489.556 54.09 469.49 54.09V54.09ZM469.49 111.87H386.086C380.716 85.697 367.886 61.536 348.61 41.939C347.899 41.216 347.179 40.506 346.455 39.801C357.706 24.371 375.854 15 395.12 15C423.608 15 448.4 35.223 454.07 63.086C454.781 66.579 457.854 69.09 461.42 69.09H469.49C481.284 69.09 490.88 78.686 490.88 90.481C490.88 102.305 481.318 111.87 469.49 111.87V111.87Z" fill="white"/>
<path d="M256 417.796C241.321 417.796 229.379 429.738 229.379 444.417C229.379 459.096 241.321 471.038 256 471.038C270.679 471.038 282.621 459.096 282.621 444.417C282.621 429.738 270.679 417.796 256 417.796V417.796ZM256 456.038C249.592 456.038 244.379 450.825 244.379 444.417C244.379 438.009 249.592 432.796 256 432.796C262.408 432.796 267.621 438.009 267.621 444.417C267.621 450.825 262.408 456.038 256 456.038V456.038Z" fill="white"/>
<path d="M286.825 286.936C283.087 282.623 277.669 280.15 271.962 280.15H240.038C234.33 280.15 228.913 282.624 225.175 286.936C221.437 291.248 219.758 296.961 220.568 302.611L232.689 387.142C233.852 395.253 240.909 401.371 249.104 401.371H262.897C271.091 401.371 278.148 395.255 279.311 387.142L291.432 302.611C292.242 296.961 290.563 291.248 286.825 286.936V286.936ZM276.584 300.481L264.463 385.011C264.352 385.785 263.679 386.369 262.897 386.369H249.104C248.322 386.369 247.649 385.786 247.538 385.012L235.417 300.481C235.154 298.645 235.989 297.362 236.511 296.76C237.033 296.158 238.184 295.149 240.039 295.149H271.963C273.817 295.149 274.97 296.159 275.491 296.76C276.012 297.361 276.847 298.646 276.584 300.481V300.481Z" fill="white"/>
<path d="M321.245 271.56H350.47C354.613 271.56 357.97 268.203 357.97 264.06C357.97 259.917 354.613 256.56 350.47 256.56H312.585L279.144 198.639C274.314 190.273 265.663 185.278 256.002 185.278C246.34 185.278 237.686 190.274 232.855 198.642L199.416 256.56H76.09C45.779 256.56 21.12 231.901 21.12 201.59C21.12 171.279 45.779 146.62 76.093 146.62C76.093 146.62 101.381 146.61 111.87 146.61C118.376 146.61 123.679 141.516 123.944 135.006C124.618 117.978 128.658 101.59 135.949 86.298C137.732 82.559 136.146 78.082 132.407 76.3C128.668 74.516 124.192 76.103 122.409 79.841C114.637 96.141 110.162 113.545 109.093 131.61C97.5 131.612 76.089 131.62 76.089 131.62C37.507 131.62 6.11902 163.009 6.11902 201.59C6.11902 240.171 37.507 271.56 76.089 271.56H190.755L101.238 426.609C99.167 430.196 100.396 434.783 103.983 436.854C107.569 438.923 112.156 437.696 114.228 434.109L245.844 206.142C247.964 202.47 251.761 200.278 256.001 200.278C260.238 200.278 264.033 202.469 266.152 206.139L423.926 479.411C426.045 483.082 426.045 487.466 423.925 491.138C421.806 494.809 418.01 497 413.771 497H98.228C93.989 497 90.193 494.809 88.073 491.137C85.953 487.466 85.953 483.082 88.073 479.411L96.731 464.415C98.802 460.828 97.573 456.241 93.986 454.17C90.398 452.099 85.812 453.327 83.741 456.915L75.083 471.911C70.252 480.278 70.252 490.269 75.083 498.637C79.913 507.005 88.565 512 98.228 512H413.773C423.434 512 432.086 507.005 436.918 498.638C441.75 490.271 441.75 480.28 436.919 471.911L321.245 271.56Z" fill="white"/>
</g>
<defs>
<clipPath id="clip0">
<rect width="512" height="512" fill="white"/>
</clipPath>
</defs>
</svg>
